<svg width="1167" height="184" viewBox="0 0 1167 184" fill="none" xmlns="http://www.w3.org/2000/svg">
<path d="M58.6001 1.60009H91.0001V107.4C91.0001 108.6 91.0667 110.133 91.2001 112C91.3334 113.733 91.4667 115.6 91.6 117.6C91.8667 119.6 92.1334 121.6 92.4001 123.6C92.6667 125.467 92.9334 127.133 93.2001 128.6H106.6V141.6H80.0001L78.0001 126.2H77.2001C74.2667 131.267 69.8667 135.533 64.0001 139C58.2667 142.333 51.6001 144 44.0001 144C28.9334 144 17.8 139.8 10.6 131.4C3.53338 122.867 4.91738e-05 109.667 4.91738e-05 91.8001C4.91738e-05 83.4001 1.20005 76.0001 3.60005 69.6001C6.00005 63.0668 9.40005 57.6668 13.8 53.4001C18.3334 49.0001 23.7334 45.6668 30.0001 43.4001C36.2667 41.1334 43.2667 40.0001 51.0001 40.0001C53.8001 40.0001 56.2667 40.0668 58.4001 40.2001C60.6667 40.3334 62.7334 40.5334 64.6001 40.8001C66.4667 41.0668 68.2001 41.4668 69.8001 42.0001C71.5334 42.4001 73.4001 42.8668 75.4001 43.4001V15.0001H58.6001V1.60009ZM46.6 130.6C54.7334 130.6 61.1334 128.533 65.8001 124.4C70.4667 120.133 73.6667 113.8 75.4001 105.4V59.0001C72.4667 57.0001 69.1334 55.5334 65.4001 54.6001C61.8001 53.6668 57.0001 53.2001 51.0001 53.2001C40.3334 53.2001 31.9334 56.3334 25.8 62.6001C19.6667 68.7334 16.6001 78.4668 16.6001 91.8001C16.6001 97.2668 17.0667 102.4 18.0001 107.2C19.0667 111.867 20.7334 115.933 23 119.4C25.4001 122.867 28.5334 125.6 32.4001 127.6C36.2667 129.6 41.0001 130.6 46.6 130.6ZM120.122 91.6001C120.122 75.4668 124.322 62.7334 132.722 53.4001C141.122 43.9334 153.122 39.2001 168.722 39.2001C177.122 39.2001 184.322 40.6001 190.322 43.4001C196.455 46.0668 201.522 49.7334 205.522 54.4001C209.522 59.0668 212.455 64.6001 214.322 71.0001C216.322 77.4001 217.322 84.2668 217.322 91.6001C217.322 99.6001 216.255 106.867 214.122 113.4C211.989 119.8 208.855 125.267 204.722 129.8C200.589 134.333 195.455 137.867 189.322 140.4C183.322 142.8 176.455 144 168.722 144C160.455 144 153.255 142.667 147.122 140C140.989 137.2 135.922 133.467 131.922 128.8C127.922 124.133 124.922 118.6 122.922 112.2C121.055 105.8 120.122 98.9334 120.122 91.6001ZM136.722 91.6001C136.722 96.2668 137.255 100.933 138.322 105.6C139.522 110.267 141.389 114.467 143.922 118.2C146.455 121.933 149.722 124.933 153.722 127.2C157.855 129.467 162.855 130.6 168.722 130.6C179.389 130.6 187.389 127.333 192.722 120.8C198.189 114.133 200.922 104.4 200.922 91.6001C200.922 86.8001 200.322 82.1334 199.122 77.6001C198.055 72.9334 196.189 68.7334 193.522 65.0001C190.989 61.2668 187.655 58.2668 183.522 56.0001C179.522 53.7334 174.589 52.6001 168.722 52.6001C158.055 52.6001 150.055 55.8668 144.722 62.4001C139.389 68.9334 136.722 78.6668 136.722 91.6001ZM249.644 141.6V128.2H284.444V55.0001H249.644V41.6001H300.444V128.2H334.444V141.6H249.644ZM279.044 13.2001C279.044 9.60009 280.244 6.53343 282.644 4.00009C285.044 1.33343 288.11 9.67979e-05 291.844 9.67979e-05C295.71 9.67979e-05 298.91 1.33343 301.444 4.00009C304.11 6.53343 305.444 9.60009 305.444 13.2001C305.444 16.6668 304.11 19.6001 301.444 22.0001C298.91 24.4001 295.71 25.6001 291.844 25.6001C288.11 25.6001 285.044 24.4001 282.644 22.0001C280.244 19.6001 279.044 16.6668 279.044 13.2001ZM442.166 86.2001C452.032 97.0001 460.766 104 468.366 107.2V110.2C464.099 112.067 459.966 114.6 455.966 117.8C452.099 121 447.499 125.6 442.166 131.6H437.166C441.166 123.2 445.366 116.733 449.766 112.2H348.766V105.6H449.766C446.566 101.733 444.299 98.8001 442.966 96.8001C441.766 94.6668 439.899 91.1334 437.366 86.2001H442.166ZM554.888 184C545.954 181.733 537.554 178.333 529.688 173.8C521.954 169.4 515.154 163.6 509.288 156.4C503.554 149.2 498.954 140.4 495.488 130C492.154 119.6 490.488 107.267 490.488 93.0001C490.488 78.8668 492.221 66.5334 495.688 56.0001C499.154 45.3334 503.821 36.3334 509.688 29.0001C515.554 21.5334 522.354 15.6001 530.088 11.2001C537.954 6.66676 546.221 3.46675 554.888 1.60009L559.888 14.2001C552.021 16.4668 544.821 19.4668 538.288 23.2001C531.754 26.8001 526.088 31.6668 521.288 37.8001C516.621 43.8001 512.954 51.3334 510.288 60.4001C507.754 69.3334 506.488 80.2001 506.488 93.0001C506.488 105.933 508.021 117 511.088 126.2C514.288 135.267 518.421 142.8 523.488 148.8C528.688 154.933 534.421 159.667 540.688 163C547.088 166.467 553.488 168.867 559.888 170.2L554.888 184ZM635.009 130.6C635.009 126.333 636.209 123.067 638.609 120.8C641.009 118.4 644.209 117.2 648.209 117.2C652.476 117.2 655.809 118.4 658.209 120.8C660.609 123.067 661.809 126.333 661.809 130.6C661.809 134.467 660.609 137.667 658.209 140.2C655.809 142.733 652.476 144 648.209 144C644.209 144 641.009 142.733 638.609 140.2C636.209 137.667 635.009 134.467 635.009 130.6ZM708.731 1.60009H740.731V53.0001H741.731C745.198 48.6001 749.665 45.2001 755.131 42.8001C760.598 40.4001 766.531 39.2001 772.931 39.2001C802.265 39.2001 816.931 56.1334 816.931 90.0001C816.931 107.2 812.198 120.4 802.731 129.6C793.265 138.667 779.798 143.2 762.331 143.2C754.065 143.2 746.598 142.4 739.931 140.8C733.265 139.2 728.398 137.333 725.331 135.2V15.0001H708.731V1.60009ZM770.931 52.6001C762.931 52.6001 756.465 54.8668 751.531 59.4001C746.598 63.9334 742.998 70.3334 740.731 78.6001V124.6C743.798 126.2 747.465 127.467 751.731 128.4C755.998 129.333 760.465 129.8 765.131 129.8C770.465 129.8 775.265 129.067 779.531 127.6C783.931 126 787.665 123.6 790.731 120.4C793.798 117.067 796.131 112.867 797.731 107.8C799.465 102.733 800.331 96.7334 800.331 89.8001C800.331 84.7334 799.798 79.9334 798.731 75.4001C797.665 70.8668 795.931 66.9334 793.531 63.6001C791.265 60.1334 788.265 57.4668 784.531 55.6001C780.798 53.6001 776.265 52.6001 770.931 52.6001ZM849.253 141.6V128.2H884.053V55.0001H849.253V41.6001H900.053V128.2H934.053V141.6H849.253ZM878.653 13.2001C878.653 9.60009 879.853 6.53343 882.253 4.00009C884.653 1.33343 887.72 9.67979e-05 891.453 9.67979e-05C895.32 9.67979e-05 898.52 1.33343 901.053 4.00009C903.72 6.53343 905.053 9.60009 905.053 13.2001C905.053 16.6668 903.72 19.6001 901.053 22.0001C898.52 24.4001 895.32 25.6001 891.453 25.6001C887.72 25.6001 884.653 24.4001 882.253 22.0001C879.853 19.6001 878.653 16.6668 878.653 13.2001ZM948.575 1.60009H980.575V53.0001H981.575C985.042 48.6001 989.508 45.2001 994.975 42.8001C1000.44 40.4001 1006.38 39.2001 1012.78 39.2001C1042.11 39.2001 1056.78 56.1334 1056.78 90.0001C1056.78 107.2 1052.04 120.4 1042.58 129.6C1033.11 138.667 1019.64 143.2 1002.18 143.2C993.908 143.2 986.442 142.4 979.775 140.8C973.108 139.2 968.242 137.333 965.175 135.2V15.0001H948.575V1.60009ZM1010.78 52.6001C1002.78 52.6001 996.308 54.8668 991.375 59.4001C986.442 63.9334 982.842 70.3334 980.575 78.6001V124.6C983.642 126.2 987.308 127.467 991.575 128.4C995.842 129.333 1000.31 129.8 1004.98 129.8C1010.31 129.8 1015.11 129.067 1019.38 127.6C1023.78 126 1027.51 123.6 1030.58 120.4C1033.64 117.067 1035.98 112.867 1037.58 107.8C1039.31 102.733 1040.18 96.7334 1040.18 89.8001C1040.18 84.7334 1039.64 79.9334 1038.58 75.4001C1037.51 70.8668 1035.78 66.9334 1033.38 63.6001C1031.11 60.1334 1028.11 57.4668 1024.38 55.6001C1020.64 53.6001 1016.11 52.6001 1010.78 52.6001ZM1096.7 170.2C1103.1 168.867 1109.43 166.467 1115.7 163C1122.1 159.667 1127.83 154.933 1132.9 148.8C1138.1 142.8 1142.23 135.267 1145.3 126.2C1148.5 117 1150.1 105.933 1150.1 93.0001C1150.1 80.2001 1148.76 69.3334 1146.1 60.4001C1143.56 51.3334 1139.9 43.8001 1135.1 37.8001C1130.43 31.6668 1124.83 26.8001 1118.3 23.2001C1111.76 19.4668 1104.56 16.4668 1096.7 14.2001L1101.7 1.60009C1110.36 3.46675 1118.56 6.66676 1126.3 11.2001C1134.16 15.6001 1141.03 21.5334 1146.9 29.0001C1152.76 36.3334 1157.43 45.3334 1160.9 56.0001C1164.36 66.5334 1166.1 78.8668 1166.1 93.0001C1166.1 107.267 1164.36 119.6 1160.9 130C1157.56 140.4 1152.96 149.2 1147.1 156.4C1141.36 163.6 1134.56 169.4 1126.7 173.8C1118.96 178.333 1110.63 181.733 1101.7 184L1096.7 170.2Z" fill="#F5F5F2"/>
</svg>
